<?xml version="1.0" encoding="UTF-8"?>
<svg id="Capa_2" xmlns="http://www.w3.org/2000/svg" viewBox="0 0 26 26">
  <defs>
    <style>
      .cls-1 {
        fill: #003e69;
        fill-rule: evenodd;
      }
    </style>
  </defs>
  <g id="Capa_1-2" data-name="Capa_1">
    <g>
      <path class="cls-1" d="M12.66,18.58s0,0,0,0c-.15,0-.27-.11-.27-.26,0,0-.02-.34-.24-.61-.3-.38-.38-.48-.68-.77-.17-.17-.35-.2-.5-.08-.14.11-.21.34-.06.6.21.36,1.54,2.24,1.88,2.72h3.85c.13-.24.4-.86.4-1.87,0-1.34-.2-1.34-.27-1.34-.14,0-.27,0-.27.79,0,.15-.12.27-.27.27s-.27-.12-.27-.27c0-.99-.06-1.37-.23-1.37-.24,0-.27.6-.27.85,0,.15-.12.27-.27.27s-.27-.12-.27-.27c0-.53,0-1.42-.22-1.42-.14,0-.26.44-.27.81h0c0,.15-.12.27-.28.27-.15,0-.27-.12-.27-.28,0,0,0-.01,0-.02,0-.18.02-1.89,0-2.47,0-.29-.09-.46-.49-.46s-.47.25-.47.41c-.03,1.04,0,4.18,0,4.22,0,.15-.12.27-.27.28Z"/>
      <path class="cls-1" d="M6.72,22.15c0,1.09.88,1.97,1.97,1.97h8.61c1.09,0,1.97-.88,1.97-1.97v-1.43H6.72v1.43ZM11.59,22.19h2.82c.15,0,.27.12.27.27s-.12.27-.27.27h-2.82c-.15,0-.27-.12-.27-.27s.12-.27.27-.27Z"/>
      <path class="cls-1" d="M24,0H2C.9,0,0,.9,0,2v22c0,1.1.9,2,2,2h22c1.1,0,2-.9,2-2V2c0-1.1-.9-2-2-2ZM19.82,22.15c0,1.39-1.13,2.52-2.52,2.52h-8.61c-1.39,0-2.52-1.13-2.52-2.52V3.85c0-1.39,1.13-2.52,2.52-2.52h8.61c1.39,0,2.52,1.13,2.52,2.52v18.31Z"/>
      <path class="cls-1" d="M6.72,20.17h5.41c-.51-.72-1.49-2.12-1.68-2.44-.32-.55-.13-1.06.19-1.31.31-.24.8-.29,1.22.13.24.24.35.36.52.57,0-1.01,0-2.41,0-3.05.01-.47.33-.94,1.02-.94.64,0,1.02.36,1.04.99,0,.26.01.74,0,1.2.08-.03.16-.05.26-.05.4,0,.59.26.68.65.1-.06.22-.09.35-.09.41,0,.6.26.69.65.1-.04.21-.07.35-.07.68,0,.82.69.82,1.88,0,.87-.18,1.49-.34,1.87h2.03V4.88H6.72v15.3ZM15.53,7.22c0-.7.57-1.27,1.27-1.27h.23c.7,0,1.27.57,1.27,1.27v.23c0,.7-.57,1.27-1.27,1.27h-.23c-.7,0-1.27-.57-1.27-1.27v-.23ZM15.53,11.12c0-.7.57-1.27,1.27-1.27h.23c.7,0,1.27.57,1.27,1.27v.23c0,.7-.57,1.27-1.27,1.27h-.23c-.7,0-1.27-.57-1.27-1.27v-.23ZM11.62,7.22c0-.7.57-1.27,1.27-1.27h.23c.7,0,1.27.57,1.27,1.27v.23c0,.7-.57,1.27-1.27,1.27h-.23c-.7,0-1.27-.57-1.27-1.27v-.23ZM11.62,11.12c0-.7.57-1.27,1.27-1.27h.23c.7,0,1.27.57,1.27,1.27v.23c0,.7-.57,1.27-1.27,1.27h-.23c-.7,0-1.27-.57-1.27-1.27v-.23ZM7.7,7.22c0-.7.57-1.27,1.27-1.27h.23c.7,0,1.27.57,1.27,1.27v.23c0,.7-.57,1.27-1.27,1.27h-.23c-.7,0-1.27-.57-1.27-1.27v-.23ZM7.7,11.12c0-.7.57-1.27,1.27-1.27h.23c.7,0,1.27.57,1.27,1.27v.23c0,.7-.57,1.27-1.27,1.27h-.23c-.7,0-1.27-.57-1.27-1.27v-.23Z"/>
      <path class="cls-1" d="M17.31,1.87h-8.61c-1.09,0-1.97.88-1.97,1.97v.48h12.55v-.48c0-1.09-.88-1.97-1.97-1.97ZM11.47,3.6c-.26,0-.48-.21-.48-.48s.21-.48.48-.48.48.21.48.48-.21.48-.48.48ZM13,3.6c-.26,0-.48-.21-.48-.48s.21-.48.48-.48.48.21.48.48-.21.48-.48.48ZM14.53,3.6c-.26,0-.48-.21-.48-.48s.21-.48.48-.48.48.21.48.48-.21.48-.48.48Z"/>
    </g>
  </g>
</svg>