<?xml version="1.0" encoding="UTF-8"?>
<svg id="Capa_2" xmlns="http://www.w3.org/2000/svg" viewBox="0 0 26 26">
  <defs>
    <style>
      .cls-1 {
        fill: #003e69;
        fill-rule: evenodd;
      }
    </style>
  </defs>
  <g id="Capa_1-2" data-name="Capa_1">
    <g id="Instagram">
      <path class="cls-1" d="M16.09,12.4c.41,2.16-1.46,4.03-3.62,3.62-1.2-.23-2.18-1.21-2.41-2.41-.41-2.16,1.46-4.03,3.62-3.62,1.2.23,2.18,1.21,2.41,2.41ZM20.9,9.11v7.77c0,2.22-1.8,4.02-4.02,4.02h-7.78c-2.22,0-4.02-1.8-4.02-4.02v-7.78c0-2.22,1.8-4.02,4.02-4.02h7.77c2.22,0,4.02,1.8,4.02,4.02ZM17.7,14.3c.97-3.64-2.28-6.89-5.93-5.93-1.6.42-2.9,1.72-3.32,3.32-.97,3.64,2.28,6.89,5.93,5.93,1.6-.42,2.9-1.72,3.32-3.32ZM19.3,7.88c0-.63-.51-1.14-1.14-1.14s-1.14.51-1.14,1.14.51,1.14,1.14,1.14,1.14-.51,1.14-1.14ZM26,2v22c0,1.1-.9,2-2,2H2c-1.1,0-2-.9-2-2V2C0,.9.9,0,2,0h22c1.1,0,2,.9,2,2ZM22.74,9.11c0-3.23-2.62-5.85-5.85-5.85h-7.78c-3.23,0-5.85,2.62-5.85,5.85v7.78c0,3.23,2.62,5.85,5.85,5.85h7.77c3.23,0,5.85-2.62,5.85-5.85v-7.77Z"/>
    </g>
  </g>
</svg>