<?xml version="1.0" encoding="UTF-8"?>
<svg id="Capa_2" xmlns="http://www.w3.org/2000/svg" viewBox="0 0 26 26">
  <defs>
    <style>
      .cls-1 {
        fill: #003e69;
      }
    </style>
  </defs>
  <g id="Capa_1-2" data-name="Capa_1">
    <g id="Link">
      <path class="cls-1" d="M24,0H2C.9,0,0,.9,0,2v22c0,1.1.9,2,2,2h22c1.1,0,2-.9,2-2V2c0-1.1-.9-2-2-2ZM7.8,22.1h-3.9v-11.7h3.9v11.7ZM6.43,8.12c-1.75.41-3.26-1.1-2.85-2.85.19-.82.87-1.5,1.69-1.69,1.75-.41,3.26,1.1,2.85,2.85-.19.82-.87,1.5-1.69,1.69ZM22.1,22.1h-3.9v-6.69c0-.77-.37-1.53-1.04-1.9-1.35-.75-2.86.37-2.86,1.71v6.89h-3.9v-11.7h3.9v1.56c.65-1.04,2.08-1.82,3.25-1.82,2.47,0,4.55,2.08,4.55,4.55v7.41Z"/>
    </g>
  </g>
</svg>