<?xml version="1.0" encoding="UTF-8"?>
<svg id="Capa_2" xmlns="http://www.w3.org/2000/svg" viewBox="0 0 26 26">
  <defs>
    <style>
      .cls-1 {
        fill: #003e69;
        fill-rule: evenodd;
      }
    </style>
  </defs>
  <g id="Capa_1-2" data-name="Capa_1">
    <g id="YouTube">
      <path class="cls-1" d="M24,0H2C.9,0,0,.9,0,2v22c0,1.1.9,2,2,2h22c1.1,0,2-.9,2-2V2c0-1.1-.9-2-2-2ZM21.17,15.16c0,1.97-1.59,3.56-3.56,3.56h-9.23c-1.97,0-3.56-1.59-3.56-3.56v-4.33c0-1.97,1.59-3.56,3.56-3.56h9.23c1.97,0,3.56,1.59,3.56,3.56v4.33ZM15.38,12.8c.16.09.16.32,0,.41l-3.71,2.03c-.17.09-.3.01-.3-.18v-4.18c0-.17.19-.28.33-.19l3.68,2.11Z"/>
    </g>
  </g>
</svg>